<svg width="28" height="28" viewBox="0 0 28 28" fill="none" xmlns="http://www.w3.org/2000/svg">
<path d="M14.0002 3.80025C14.6126 3.80025 15.1814 4.15023 15.4876 4.6752L24.9371 20.7743C25.2433 21.3431 25.2433 21.9993 24.9371 22.5242C24.6309 23.093 24.0621 23.3992 23.4497 23.3992L4.55068 23.3992C3.89447 23.3992 3.32575 23.093 3.01952 22.5242C2.71328 21.9993 2.71328 21.3431 3.01952 20.7743L12.469 4.6752C12.7752 4.15023 13.344 3.80025 14.0002 3.80025ZM14.0002 9.39995C13.3877 9.39995 12.9502 9.88117 12.9502 10.4499L12.9502 15.3496C12.9502 15.9621 13.3877 16.3996 14.0002 16.3996C14.5689 16.3996 15.0501 15.9621 15.0501 15.3496L15.0501 10.4499C15.0501 9.88117 14.5689 9.39995 14.0002 9.39995ZM15.4001 19.1994C15.4001 18.4557 14.7439 17.7995 14.0002 17.7995C13.2127 17.7995 12.6003 18.4557 12.6003 19.1994C12.6003 19.9869 13.2127 20.5993 14.0002 20.5993C14.7439 20.5993 15.4001 19.9869 15.4001 19.1994Z" fill="white"/>
</svg>
