<svg width="26" height="27" viewBox="0 0 26 27" fill="none" xmlns="http://www.w3.org/2000/svg">
<path d="M12.5811 5.75706C9.63224 5.75706 6.95859 7.32979 5.4645 9.84616C4.00972 12.4018 4.00972 15.508 5.4645 18.0244C6.95859 20.5801 9.63224 22.1135 12.5811 22.1135C15.4907 22.1135 18.1643 20.5801 19.6584 18.0244C21.1132 15.508 21.1132 12.4018 19.6584 9.84616C18.1643 7.32979 15.4907 5.75706 12.5811 5.75706ZM12.5811 24.0007C8.96383 24.0007 5.66109 22.1135 3.85245 18.968C2.04381 15.8619 2.04381 12.048 3.85245 8.90252C5.66109 5.79637 8.96383 3.86978 12.5811 3.86978C16.1591 3.86978 19.4618 5.79637 21.2705 8.90252C23.0791 12.048 23.0791 15.8619 21.2705 18.968C19.4618 22.1135 16.1591 24.0007 12.5811 24.0007ZM17.0241 12.0873L11.9913 17.12C11.5982 17.5132 11.0084 17.5132 10.6545 17.12L8.13814 14.6037C7.74496 14.2498 7.74496 13.66 8.13814 13.3062C8.49201 12.913 9.08178 12.913 9.47496 13.3062L11.3229 15.1541L15.6873 10.7898C16.0411 10.3966 16.6309 10.3966 17.0241 10.7898C17.3779 11.1437 17.3779 11.7334 17.0241 12.0873Z" fill="#109454"/>
</svg>
