<svg width="22" height="22" viewBox="0 0 22 22" fill="none" xmlns="http://www.w3.org/2000/svg">
<path d="M9.1309 3.85073H12.8385C13.6588 3.85073 14.3478 4.3757 14.6103 5.13035L14.8728 5.95062H17.3008C18.4492 5.95062 19.4007 6.90213 19.4007 8.05051V16.4501C19.4007 17.6312 18.4492 18.5499 17.3008 18.5499H4.70145C3.52026 18.5499 2.60156 17.6312 2.60156 16.4501V8.05051C2.60156 6.90213 3.52026 5.95062 4.70145 5.95062H7.09663L7.39193 5.13035L8.11377 5.36003L7.39193 5.13035C7.62161 4.3757 8.34344 3.85073 9.1309 3.85073ZM8.86841 5.62251L8.40906 7.00056C8.31063 7.32867 8.01533 7.52553 7.65442 7.52553H4.70145C4.40615 7.52553 4.17648 7.78802 4.17648 8.05051V16.4501C4.17648 16.7454 4.40615 16.975 4.70145 16.975H17.3008C17.5633 16.975 17.8257 16.7454 17.8257 16.4501V8.05051C17.8257 7.78802 17.5633 7.52553 17.3008 7.52553H14.315C13.9541 7.52553 13.6588 7.32867 13.5603 7.00056L13.101 5.62251C13.0682 5.52408 12.9698 5.42565 12.8385 5.42565H9.1309C8.99966 5.42565 8.90122 5.52408 8.86841 5.62251ZM11.0011 15.9251C9.65587 15.9251 8.47468 15.2361 7.81847 14.0877C7.12944 12.9721 7.12944 11.5613 7.81847 10.4129C8.47468 9.29731 9.65587 8.57548 11.0011 8.57548C12.3135 8.57548 13.4947 9.29731 14.1509 10.4129C14.84 11.5613 14.84 12.9721 14.1509 14.0877C13.4947 15.2361 12.3135 15.9251 11.0011 15.9251ZM8.90122 12.2503C8.90122 13.0049 9.29495 13.694 9.95117 14.0877C10.5746 14.4486 11.3948 14.4486 12.0511 14.0877C12.6745 13.694 13.101 13.0049 13.101 12.2503C13.101 11.5284 12.6745 10.8394 12.0511 10.4457C11.3948 10.0848 10.5746 10.0848 9.95117 10.4457C9.29495 10.8394 8.90122 11.5284 8.90122 12.2503Z" fill="white" fill-opacity="0.7"/>
</svg>
