<svg width="200" height="185" viewBox="0 0 200 185" fill="none" xmlns="http://www.w3.org/2000/svg">
<g filter="url(#filter0_d_2616_802)">
<path d="M114.528 93.2089C112.319 96.1914 110.11 99.2843 109.115 102.709L91.4413 102.709C90.3367 99.2843 88.1274 96.1914 85.9182 93.2089C85.3658 92.4357 84.8135 91.6624 84.2612 90.8892C82.052 87.6858 80.8369 83.93 80.8369 79.7324C80.8369 69.0175 89.453 60.291 100.278 60.291C110.993 60.291 119.72 69.0175 119.72 79.7324C119.72 83.93 118.394 87.6857 116.185 90.8892C115.633 91.6624 115.08 92.4356 114.528 93.2089ZM91.4413 116.848L91.4413 106.244L109.115 106.244L109.115 116.848L91.4413 116.848ZM100.278 70.8954L100.278 67.3606C93.4296 67.3606 87.9065 72.9942 87.9065 79.7324L91.4413 79.7324C91.4413 74.8721 95.3075 70.8954 100.278 70.8954ZM74.5405 62.0584L75.2033 62.5002L77.8544 64.2676L80.0636 65.8141L77.0811 70.2326L74.8719 68.6861L72.2208 66.9187L71.558 66.4769L69.3487 65.0409L72.3312 60.6224L74.5405 62.0584ZM128.888 66.4769L128.225 66.9187L125.574 68.6861L123.365 70.2326L120.383 65.8141L122.592 64.2676L125.243 62.5002L125.906 62.0584L128.115 60.6224L131.097 65.0409L128.888 66.4769ZM67.5813 77.965L72.8835 77.965L75.5347 77.965L75.5347 83.2672L72.8835 83.2672L67.5813 83.2672L64.9302 83.2672L64.9302 77.965L67.5813 77.965ZM127.673 77.965L132.975 77.965L135.626 77.965L135.626 83.2672L132.975 83.2672L127.673 83.2672L125.022 83.2672L125.022 77.965L127.673 77.965ZM77.8544 96.9646L75.2033 98.732L74.5405 99.1739L72.3312 100.72L69.3487 96.3019L71.558 94.7554L72.2208 94.3135L74.8719 92.5461L77.0811 91.1101L80.0636 95.5286L77.8544 96.9646ZM125.574 92.6566L128.225 94.424L128.888 94.8658L131.097 96.3018L128.115 100.72L125.906 99.1739L125.243 98.732L122.592 96.9646L120.383 95.5286L123.365 91.1101L125.574 92.6566Z" fill="white"/>
</g>
<defs>
<filter id="filter0_d_2616_802" x="0.930176" y="0" width="198.696" height="184.848" filterUnits="userSpaceOnUse" color-interpolation-filters="sRGB">
<feFlood flood-opacity="0" result="BackgroundImageFix"/>
<feColorMatrix in="SourceAlpha" type="matrix" values="0 0 0 0 0 0 0 0 0 0 0 0 0 0 0 0 0 0 127 0" result="hardAlpha"/>
<feOffset dy="4"/>
<feGaussianBlur stdDeviation="32"/>
<feComposite in2="hardAlpha" operator="out"/>
<feColorMatrix type="matrix" values="0 0 0 0 0 0 0 0 0 0 0 0 0 0 0 0 0 0 0.56 0"/>
<feBlend mode="normal" in2="BackgroundImageFix" result="effect1_dropShadow_2616_802"/>
<feBlend mode="normal" in="SourceGraphic" in2="effect1_dropShadow_2616_802" result="shape"/>
</filter>
</defs>
</svg>
