<svg width="136" height="136" viewBox="0 0 136 136" fill="none" xmlns="http://www.w3.org/2000/svg">
<g filter="url(#filter0_d_2470_3706)">
<path d="M67.8257 39.9912C83.4009 39.9912 96.1042 52.6944 96.1042 68.2696C96.1042 83.9554 83.401 96.5481 67.8257 96.5481C52.14 96.5481 39.5472 83.9554 39.5472 68.2697C39.5472 60.4268 42.7506 53.2467 47.9424 48.1654L50.483 45.6248L55.4538 50.7061L52.9132 53.1362C49.047 57.0024 46.6168 62.4151 46.6168 68.2697C46.6168 79.9787 56.1166 89.4785 67.8257 89.4785C79.5348 89.4785 89.0346 79.9787 89.0346 68.2696C89.0345 57.7757 81.3021 49.0491 71.3605 47.3922L71.3605 50.5956L71.3605 54.1304L64.2909 54.1304L64.2909 50.5956L64.2909 43.526L64.2909 39.9912L67.8257 39.9912ZM60.8665 57.5548L60.7561 57.5548L69.5931 66.3918L71.471 68.2696L67.8257 72.0254L65.9478 70.1475L57.1108 61.3105L55.2329 59.4326L58.9887 55.6769L60.8665 57.5548Z" fill="white"/>
</g>
<defs>
<filter id="filter0_d_2470_3706" x="-69.0865" y="-62.144" width="273.825" height="274.116" filterUnits="userSpaceOnUse" color-interpolation-filters="sRGB">
<feFlood flood-opacity="0" result="BackgroundImageFix"/>
<feColorMatrix in="SourceAlpha" type="matrix" values="0 0 0 0 0 0 0 0 0 0 0 0 0 0 0 0 0 0 127 0" result="hardAlpha"/>
<feOffset dy="6.78961"/>
<feGaussianBlur stdDeviation="54.3169"/>
<feComposite in2="hardAlpha" operator="out"/>
<feColorMatrix type="matrix" values="0 0 0 0 0 0 0 0 0 0 0 0 0 0 0 0 0 0 0.56 0"/>
<feBlend mode="normal" in2="BackgroundImageFix" result="effect1_dropShadow_2470_3706"/>
<feBlend mode="normal" in="SourceGraphic" in2="effect1_dropShadow_2470_3706" result="shape"/>
</filter>
</defs>
</svg>
