<svg width="22" height="22" viewBox="0 0 22 22" fill="none" xmlns="http://www.w3.org/2000/svg">
<path d="M12.576 5.95062C12.576 5.09754 11.8542 4.3757 11.0011 4.3757C10.1152 4.3757 9.4262 5.09754 9.4262 5.95062V11.2003C9.4262 12.0862 10.1152 12.7753 11.0011 12.7753C11.8542 12.7753 12.576 12.0862 12.576 11.2003V5.95062ZM7.85128 5.95062C7.85128 4.21165 9.26214 2.80079 11.0011 2.80079C12.7401 2.80079 14.1509 4.21165 14.1509 5.95062V11.2003C14.1509 12.9393 12.7401 14.3502 11.0011 14.3502C9.26214 14.3502 7.85128 12.9393 7.85128 11.2003V5.95062ZM6.80134 9.88791V11.2003C6.80134 13.5299 8.67155 15.4001 11.0011 15.4001C13.2979 15.4001 15.2009 13.5299 15.2009 11.2003V9.88791C15.2009 9.46137 15.529 9.10045 15.9883 9.10045C16.4149 9.10045 16.7758 9.46137 16.7758 9.88791V11.2003C16.7758 14.1533 14.5775 16.5485 11.7886 16.9422V18.025H13.3635C13.79 18.025 14.1509 18.3859 14.1509 18.8124C14.1509 19.2718 13.79 19.5999 13.3635 19.5999H11.0011H8.63874C8.17939 19.5999 7.85128 19.2718 7.85128 18.8124C7.85128 18.3859 8.17939 18.025 8.63874 18.025H10.2137V16.9422C7.39193 16.5485 5.22642 14.1533 5.22642 11.2003V9.88791C5.22642 9.46137 5.55453 9.10045 6.01388 9.10045C6.44042 9.10045 6.80134 9.46137 6.80134 9.88791Z" fill="white" fill-opacity="0.7"/>
</svg>
