<svg width="26" height="27" viewBox="0 0 26 27" fill="none" xmlns="http://www.w3.org/2000/svg">
<path d="M12.5811 5.80784C9.63224 5.80784 6.95859 7.38057 5.4645 9.89694C4.00972 12.4526 4.00972 15.5588 5.4645 18.0751C6.95859 20.6308 9.63224 22.1642 12.5811 22.1642C15.4907 22.1642 18.1643 20.6308 19.6584 18.0751C21.1132 15.5588 21.1132 12.4526 19.6584 9.89694C18.1643 7.38057 15.4907 5.80784 12.5811 5.80784ZM12.5811 24.0515C8.96383 24.0515 5.66109 22.1642 3.85245 19.0188C2.04381 15.9126 2.04381 12.0988 3.85245 8.9533C5.66109 5.84716 8.96383 3.92056 12.5811 3.92056C16.1591 3.92056 19.4618 5.84716 21.2705 8.9533C23.0791 12.0988 23.0791 15.9126 21.2705 19.0188C19.4618 22.1642 16.1591 24.0515 12.5811 24.0515ZM9.39633 10.8013C9.75019 10.4474 10.34 10.4474 10.6938 10.8013L12.5418 12.6492L14.3898 10.8013C14.7829 10.4474 15.3727 10.4474 15.7266 10.8013C16.1198 11.1944 16.1198 11.7842 15.7266 12.1381L13.8786 13.986L15.7266 15.834C16.1198 16.2272 16.1198 16.817 15.7266 17.1708C15.3727 17.564 14.7829 17.564 14.3898 17.1708L12.5418 15.3229L10.6938 17.1708C10.34 17.564 9.75019 17.564 9.39633 17.1708C9.00314 16.817 9.00314 16.2272 9.39633 15.834L11.2443 13.986L9.39633 12.1381C9.00314 11.7842 9.00314 11.1944 9.39633 10.8013Z" fill="#B21041"/>
</svg>
