<svg width="136" height="136" viewBox="0 0 136 136" fill="none" xmlns="http://www.w3.org/2000/svg">
<g filter="url(#filter0_d_2470_3534)">
<path d="M58.3897 46.2771L56.6223 48.2654L48.669 57.1024L46.7911 59.0908L44.9133 57.1024L40.4948 52.6839L38.6169 50.8061L42.3726 47.1608L44.2505 48.9282L46.6807 51.4688L52.7561 44.6201L54.5235 42.7423L58.5002 46.2771L58.3897 46.2771ZM58.3897 63.9511L56.6223 65.829L48.669 74.666L46.7911 76.7648L44.9133 74.7765L40.4948 70.358L38.6169 68.4801L42.3726 64.8348L44.2505 66.7127L46.6807 69.1429L52.7561 62.2942L54.5235 60.4163L58.5002 63.9511L58.3897 63.9511ZM64.4652 47.2712L68 47.2712L92.7437 47.2712L96.2785 47.2712L96.2785 54.3409L92.7437 54.3409L68 54.3409L64.4652 54.3409L64.4652 47.2712ZM64.4652 64.9453L68 64.9453L92.7437 64.9453L96.2785 64.9453L96.2785 72.0149L92.7437 72.0149L68 72.0149L64.4652 72.0149L64.4652 64.9453ZM57.3956 82.6193L60.9304 82.6193L92.7437 82.6193L96.2785 82.6193L96.2785 89.689L92.7437 89.689L60.9304 89.689L57.3956 89.689L57.3956 82.6193ZM45.0237 80.8519C46.9016 80.8519 48.5586 81.9566 49.5527 83.503C50.5469 85.16 50.5469 87.2588 49.5527 88.8053C48.5586 90.4622 46.9016 91.4564 45.0237 91.4564C43.0354 91.4564 41.3785 90.4622 40.3843 88.8053C39.3901 87.2588 39.3901 85.16 40.3843 83.503C41.3785 81.9566 43.0354 80.8519 45.0237 80.8519Z" fill="white"/>
</g>
<defs>
<filter id="filter0_d_2470_3534" x="-70.0166" y="-61.9336" width="274.929" height="273.825" filterUnits="userSpaceOnUse" color-interpolation-filters="sRGB">
<feFlood flood-opacity="0" result="BackgroundImageFix"/>
<feColorMatrix in="SourceAlpha" type="matrix" values="0 0 0 0 0 0 0 0 0 0 0 0 0 0 0 0 0 0 127 0" result="hardAlpha"/>
<feOffset dy="6.78961"/>
<feGaussianBlur stdDeviation="54.3169"/>
<feComposite in2="hardAlpha" operator="out"/>
<feColorMatrix type="matrix" values="0 0 0 0 0 0 0 0 0 0 0 0 0 0 0 0 0 0 0.56 0"/>
<feBlend mode="normal" in2="BackgroundImageFix" result="effect1_dropShadow_2470_3534"/>
<feBlend mode="normal" in="SourceGraphic" in2="effect1_dropShadow_2470_3534" result="shape"/>
</filter>
</defs>
</svg>
