<svg width="21" height="22" viewBox="0 0 21 22" fill="none" xmlns="http://www.w3.org/2000/svg">
<path d="M13.9771 3.72751C14.7974 2.90724 16.1426 2.90724 16.9629 3.72751L18.2425 5.00713C19.0628 5.8274 19.0628 7.17264 18.2425 7.99291L16.6676 9.56782L12.4022 5.30243L13.9771 3.72751ZM11.6475 6.05707L15.9129 10.3225L8.26803 17.9674C7.93992 18.2955 7.51338 18.558 7.05403 18.6892L3.08393 19.8704C2.82145 19.936 2.52615 19.8704 2.32928 19.6407C2.09961 19.4439 2.03399 19.1486 2.13242 18.8861L3.2808 14.916C3.41204 14.4566 3.67452 14.0301 4.00263 13.702L11.6475 6.05707Z" fill="white"/>
</svg>
