<svg width="29" height="28" viewBox="0 0 29 28" fill="none" xmlns="http://www.w3.org/2000/svg">
<path d="M14.6223 2.40105C16.9409 2.40105 18.822 4.2822 18.822 6.60083V13.6005C18.822 15.9191 16.9409 17.8002 14.6223 17.8002C12.3036 17.8002 10.4225 15.9191 10.4225 13.6005V6.60083C10.4225 4.2822 12.3036 2.40105 14.6223 2.40105ZM9.02255 11.8505V13.6005C9.02255 16.7065 11.5162 19.2002 14.6223 19.2002C17.6846 19.2002 20.2219 16.7065 20.2219 13.6005V11.8505C20.2219 11.2818 20.6594 10.8006 21.2719 10.8006C21.8406 10.8006 22.3218 11.2818 22.3218 11.8505V13.6005C22.3218 17.5377 19.3907 20.7313 15.6722 21.2563V22.7H17.7721C18.3408 22.7 18.822 23.1812 18.822 23.7499C18.822 24.3624 18.3408 24.7998 17.7721 24.7998H14.6223H11.4724C10.86 24.7998 10.4225 24.3624 10.4225 23.7499C10.4225 23.1812 10.86 22.7 11.4724 22.7H13.5723V21.2563C9.81001 20.7313 6.92266 17.5377 6.92266 13.6005V11.8505C6.92266 11.2818 7.36014 10.8006 7.97261 10.8006C8.54133 10.8006 9.02255 11.2818 9.02255 11.8505Z" fill="white"/>
</svg>
