<svg xmlns="http://www.w3.org/2000/svg" xmlns:xlink="http://www.w3.org/1999/xlink" width="200px" height="200px" viewBox="0 0 100 100" preserveAspectRatio="xMidYMid">
  <circle cx="50" cy="50" r="0" fill="none" stroke="#370aff" stroke-width="20">
    <animate attributeName="r" repeatCount="indefinite" dur="3.278688524590164s" values="0;32" keyTimes="0;1" keySplines="0 0.2 0.8 1" calcMode="spline" begin="0s"></animate>
    <animate attributeName="opacity" repeatCount="indefinite" dur="3.278688524590164s" values="1;0" keyTimes="0;1" keySplines="0.2 0 0.8 1" calcMode="spline" begin="0s"></animate>
  </circle>
  <circle cx="50" cy="50" r="0" fill="none" stroke="#370aff" stroke-width="20">
    <animate attributeName="r" repeatCount="indefinite" dur="3.278688524590164s" values="0;32" keyTimes="0;1" keySplines="0 0.2 0.8 1" calcMode="spline" begin="-1.639344262295082s"></animate>
    <animate attributeName="opacity" repeatCount="indefinite" dur="3.278688524590164s" values="1;0" keyTimes="0;1" keySplines="0.2 0 0.8 1" calcMode="spline" begin="-1.639344262295082s"></animate>
  </circle>
  <circle cx="50" cy="50" r="20" fill="#ffffff"/>
  <g transform="translate(43.5, 40.5) scale(0.035)">
    <path d="M192 0C139 0 96 43 96 96V256c0 53 43 96 96 96s96-43 96-96V96c0-53-43-96-96-96zM64 216c0-13.3-10.7-24-24-24s-24 10.7-24 24v40c0 89.1 66.2 162.7 152 174.4V464H120c-13.3 0-24 10.7-24 24s10.7 24 24 24h72 72c13.3 0 24-10.7 24-24s-10.7-24-24-24H216V430.4c85.8-11.7 152-85.3 152-174.4V216c0-13.3-10.7-24-24-24s-24 10.7-24 24v40c0 70.7-57.3 128-128 128s-128-57.3-128-128V216z" fill="#370aff"/>
  </g>
</svg>
